<?xml version="1.0" standalone="no"?>
<!DOCTYPE svg PUBLIC "-//W3C//DTD SVG 20010904//EN"
 "http://www.w3.org/TR/2001/REC-SVG-20010904/DTD/svg10.dtd">
<svg version="1.0" xmlns="http://www.w3.org/2000/svg"
 width="1280.000000pt" height="640.000000pt" viewBox="0 0 1280.000000 640.000000"
 preserveAspectRatio="xMidYMid meet">
<metadata>
Created by potrace 1.15, written by Peter Selinger 2001-2017
</metadata>
<g transform="translate(0.000000,640.000000) scale(0.100000,-0.100000)"
fill="#000000" stroke="none">
<path d="M330 3913 c-58 -19 -143 -67 -173 -98 -69 -71 -68 -62 -65 -625 l3
-505 27 -46 c31 -53 94 -99 172 -126 49 -17 305 -18 6111 -18 5831 0 6062 1
6115 18 72 24 128 63 165 116 l30 43 2 526 1 527 -25 47 c-22 40 -38 56 -63
63 -3 0 -21 11 -40 23 -19 12 -57 30 -85 40 -47 16 -388 17 -6105 19 -3330 1
-6062 -1 -6070 -4z"/>
</g>
</svg>
